<?xml version="1.0" encoding="utf-8"?>
<!-- Generator: Adobe Illustrator 16.0.0, SVG Export Plug-In . SVG Version: 6.00 Build 0)  -->
<!DOCTYPE svg PUBLIC "-//W3C//DTD SVG 1.0//EN" "http://www.w3.org/TR/2001/REC-SVG-20010904/DTD/svg10.dtd">
<svg version="1.0" id="Layer_1" xmlns="http://www.w3.org/2000/svg" xmlns:xlink="http://www.w3.org/1999/xlink" x="0px" y="0px"
	 width="5000px" height="700px" viewBox="0 0 5000 700" enable-background="new 0 0 5000 700" xml:space="preserve">
<g>
	<g>
		<path fill="#FFFFFF" d="M890.618,407.085c-10.425,0.549-20.847,1.113-31.271,1.644c-14.191,0.727-28.385,1.433-42.577,2.138
			c-3.861,0.193-7.727,0.307-11.585,0.56c-2.981,0.195-3.376,0.599-4.011,3.538c-7.158,33.136-14.322,66.269-21.461,99.41
			c-6.487,30.119-12.949,60.243-19.419,90.361c-0.709,3.307-1.385,6.617-2.107,9.92c-0.221,1.003-0.55,1.979-0.95,3.401
			c-1.196-1.015-2.073-1.721-2.908-2.476c-19.86-17.968-39.717-35.94-59.575-53.913c-0.645-0.583-1.286-1.168-1.951-1.732
			c-1.431-1.214-2.958-1.298-4.551-0.337c-0.827,0.503-1.641,1.022-2.456,1.539c-56.408,35.93-112.816,71.862-169.23,107.78
			c-1.024,0.652-2.114,1.202-3.417,1.937c-0.213-2.604-0.457-4.795-0.567-6.995c-0.664-13.227-1.298-26.454-1.943-39.679
			c-0.612-12.553-1.207-25.104-1.835-37.656c-0.169-3.377-0.432-3.665-3.765-4.404c-37.321-8.298-74.632-16.636-111.967-24.864
			c-29.135-6.423-58.3-12.707-87.449-19.061c-0.838-0.184-1.66-0.442-2.86-0.765c0.869-1.009,1.529-1.808,2.223-2.574
			c17.705-19.576,35.416-39.15,53.124-58.727c0.324-0.356,0.652-0.715,0.975-1.075c2.992-3.303,3.011-3.469,0.636-7.194
			c-30.296-47.514-60.593-95.028-90.889-142.542c-5.977-9.373-11.946-18.751-17.912-28.129c-0.559-0.879-1.069-1.787-1.792-3.007
			c2.254-0.221,4.127-0.475,6.007-0.576c8.202-0.452,16.408-0.872,24.614-1.286c14.577-0.733,29.152-1.459,43.731-2.175
			c3.187-0.157,6.379-0.193,9.563-0.39c4.206-0.255,4.324-0.381,5.193-4.325c3.705-16.787,7.394-33.579,11.096-50.367
			c7.632-34.614,15.267-69.229,22.907-103.84c3.227-14.617,6.47-29.23,9.713-43.843c0.225-1.013,0.522-2.01,0.888-3.412
			c1.045,0.821,1.889,1.407,2.646,2.089c19.642,17.779,39.275,35.566,58.909,53.354c0.144,0.131,0.28,0.266,0.424,0.396
			c3.569,3.257,4.248,3.321,8.286,0.717c55.952-36.112,111.904-72.226,167.859-108.331c1.52-0.979,3.076-1.903,4.938-3.047
			c0.219,1.421,0.471,2.433,0.522,3.457c0.649,13.325,1.249,26.65,1.904,39.973c0.697,14.194,1.432,28.383,2.164,42.573
			c0.136,2.633,0.51,3.154,3.123,3.734c10.46,2.326,20.932,4.601,31.402,6.877c31.693,6.893,63.387,13.784,95.084,20.667
			c24.432,5.31,48.868,10.604,73.3,15.91c1.006,0.219,1.995,0.517,3.379,0.882c-0.933,1.132-1.612,2.032-2.368,2.868
			c-17.838,19.715-35.681,39.43-53.53,59.139c-3.796,4.188-3.816,4.309-0.698,9.161c36.049,56.112,72.098,112.222,108.153,168.333
			c0.709,1.101,1.52,2.138,2.281,3.206C890.618,406.311,890.618,406.698,890.618,407.085z M570.656,397.093
			c5.415,0,10.828,0,16.241,0c2.28,0,4.344-0.412,6.079-2.159c7.216-7.276,14.48-14.507,21.785-21.694
			c1.848-1.819,2.68-3.857,2.664-6.455c-0.068-10.441-0.078-20.885,0.005-31.33c0.022-2.715-0.891-4.808-2.8-6.695
			c-7.154-7.063-14.286-14.157-21.321-21.339c-2.115-2.16-4.43-3.152-7.455-3.123c-9.861,0.097-19.725,0.08-29.587,0.006
			c-2.692-0.021-4.823,0.81-6.724,2.737c-7.403,7.5-14.858,14.948-22.355,22.359c-1.7,1.678-2.495,3.56-2.485,5.933
			c0.037,10.634,0.037,21.269,0,31.9c-0.01,2.375,0.781,4.246,2.489,5.93c7.023,6.921,14.033,13.864,20.898,20.94
			c2.148,2.213,4.522,3.063,7.489,3.017C560.601,397.035,565.629,397.093,570.656,397.093z M616.116,478.51
			c-0.659,0.215-0.887,0.221-1,0.339c-0.468,0.487-0.915,0.994-1.342,1.522c-5.636,6.966-12.276,12.844-19.576,18.001
			c-8.883,6.275-18.512,11.168-28.527,15.335c-29.632,12.311-60.727,17.677-92.583,19.127c-12.546,0.571-25.123,0.664-37.686,0.607
			c-10.239-0.046-20.48-0.502-30.708-1.041c-8.005-0.42-15.994-1.19-23.98-1.917c-6.83-0.621-13.649-1.365-20.463-2.123
			c-5.185-0.577-10.357-1.268-15.536-1.878c-0.568-0.067-1.159,0.041-1.741,0.065c0.888,0.759,1.763,1.134,2.674,1.364
			c12.904,3.281,25.761,6.779,38.74,9.751c17.037,3.903,34.255,6.938,51.639,8.845c10.27,1.133,20.567,2.1,30.878,2.73
			c12.548,0.768,25.107,0.499,37.66-0.398c9.837-0.707,19.636-1.606,29.309-3.591c15.244-3.121,29.802-8.11,43.191-16.174
			c18.535-11.161,31.38-26.924,38.203-47.516C615.564,480.664,615.775,479.743,616.116,478.51z M390.664,121.155
			c-0.235-0.03-0.47-0.059-0.703-0.089c-0.255,0.692-0.573,1.37-0.756,2.082c-3.008,11.686-6.275,23.313-8.943,35.078
			c-6.716,29.622-11.534,59.518-12.672,89.948c-0.728,19.467-0.139,38.838,3.12,58.063c2.478,14.644,6.631,28.791,13.419,42.062
			c11.303,22.102,28.416,37.536,52.228,45.2c0.561,0.179,1.179,0.177,1.924,0.278c-0.198-0.434-0.232-0.645-0.356-0.758
			c-1.063-0.982-2.122-1.974-3.22-2.918c-6.64-5.712-12.427-12.22-17.119-19.581c-3.833-6.015-7.565-12.167-10.598-18.61
			c-13.29-28.238-19.537-58.296-22.152-89.206c-0.79-9.334-1.289-18.704-1.547-28.066c-0.248-8.979-0.132-17.973,0.05-26.958
			c0.311-15.464,1.538-30.874,3.142-46.253c1.141-10.95,2.251-21.905,3.379-32.857C390.117,126.096,390.396,123.624,390.664,121.155
			z M796.416,168.721c-0.386-0.553-0.463-0.789-0.604-0.844c-0.987-0.376-1.974-0.759-2.985-1.053
			c-17.341-5.071-34.913-9.182-52.648-12.598c-17.649-3.398-35.415-6.043-53.324-7.6c-12.814-1.116-25.661-1.546-38.524-1.291
			c-15.877,0.311-31.644,1.636-47.149,5.231c-14.775,3.426-28.904,8.49-41.71,16.782c-17.075,11.053-29.008,26.159-35.553,45.457
			c-0.322,0.944-0.529,1.929-0.847,3.097c0.575-0.17,0.803-0.167,0.916-0.281c0.951-0.965,1.91-1.917,2.808-2.93
			c10.751-12.137,23.804-21.13,38.418-27.934c23.949-11.151,49.284-17.312,75.381-20.679c12.854-1.657,25.777-2.506,38.724-2.689
			c10.917-0.154,21.842,0.033,32.758,0.282c9.948,0.227,19.897,0.612,29.833,1.178c7.033,0.404,14.054,1.138,21.063,1.878
			c7.585,0.801,15.153,1.77,22.728,2.676C789.138,167.811,792.57,168.246,796.416,168.721z M748.441,573.54
			c0.2,0.053,0.401,0.11,0.601,0.159c0.316-0.844,0.701-1.674,0.938-2.542c1.012-3.729,1.971-7.473,2.971-11.202
			c9.789-36.586,16.731-73.636,18.437-111.564c0.909-20.243,0.275-40.396-3.188-60.387c-2.501-14.44-6.601-28.414-13.326-41.504
			c-10.836-21.089-27.024-36.232-49.537-44.272c-1.232-0.441-2.501-0.775-3.752-1.162c-0.116,0.18-0.235,0.357-0.35,0.534
			c1.339,1.338,2.638,2.719,4.026,4.004c11.503,10.661,20.301,23.278,26.933,37.424c11.48,24.493,17.567,50.478,20.748,77.179
			c1.3,10.924,1.95,21.941,2.576,32.935c0.944,16.615,0.563,33.251-0.429,49.852c-0.803,13.499-2.028,26.977-3.291,40.446
			c-0.866,9.229-2.114,18.423-3.183,27.634C748.518,571.889,748.495,572.718,748.441,573.54z M282.905,313.942
			c-0.141,0.086-0.284,0.175-0.425,0.263c0.271,0.666,0.475,1.373,0.826,1.996c0.901,1.6,1.872,3.157,2.802,4.743
			c9.796,16.661,19.67,33.271,30.72,49.155c17.438,25.07,36.645,48.62,59.171,69.346c13.495,12.42,27.916,23.555,44.346,31.89
			c12.503,6.342,25.579,10.941,39.604,12.296c16.256,1.569,31.739-1.379,46.377-8.651c0.812-0.402,1.569-0.92,2.35-1.385
			c-0.044-0.201-0.092-0.402-0.137-0.602c-0.915-0.042-1.831-0.143-2.742-0.116c-1.546,0.048-3.087,0.203-4.631,0.252
			c-14.093,0.466-27.659-2.253-40.94-6.736c-21.054-7.107-40.243-17.773-58.293-30.589c-26.531-18.84-50.099-40.964-71.983-64.96
			c-15.714-17.229-30.241-35.437-44.548-53.827C284.594,315.975,283.739,314.966,282.905,313.942z M695.257,407.628
			c-0.209,0.062-0.414,0.126-0.621,0.194c0,0.734-0.069,1.479,0.01,2.207c0.856,7.922,0.669,15.818-0.542,23.689
			c-2.339,15.209-7.25,29.609-13.873,43.443c-10.537,22.015-24.221,41.983-39.839,60.658
			c-21.902,26.191-46.549,49.596-72.925,71.201c-9.642,7.899-19.551,15.471-29.326,23.206c-0.741,0.589-1.71,1.027-2.26,2.561
			c1.364-0.666,2.26-1.013,3.06-1.504c16.669-10.328,33.571-20.309,49.939-31.094c26.969-17.769,51.708-38.288,73.533-62.192
			c12.764-13.983,24.074-28.982,32.336-46.121c6.271-13.012,10.544-26.577,11.284-41.072c0.792-15.508-2.708-30.111-9.833-43.868
			C695.957,408.465,695.574,408.062,695.257,407.628z M628.75,221.992c0.5,0.332,0.641,0.496,0.799,0.517
			c0.28,0.038,0.58,0.023,0.863-0.024c8.583-1.454,17.149-0.927,25.676,0.402c14.311,2.228,27.928,6.745,41.035,12.845
			c20.882,9.725,39.944,22.324,57.812,36.777c25.563,20.675,48.487,44.043,69.593,69.192c10.059,11.989,19.592,24.415,29.367,36.643
			c0.665,0.833,1.35,1.646,2.026,2.469c0.191-0.136,0.384-0.273,0.577-0.412c-0.403-0.828-0.761-1.682-1.219-2.476
			c-1.201-2.097-2.463-4.154-3.667-6.252c-12.982-22.656-27.026-44.619-42.853-65.414c-16.38-21.521-34.373-41.541-55.055-59.044
			c-13.418-11.356-27.913-21.037-44.175-27.907c-11.208-4.736-22.818-7.79-35.019-8.385c-15.855-0.775-30.593,3.304-44.663,10.278
			C629.527,221.358,629.259,221.624,628.75,221.992z M443.878,287.711c0.192-0.063,0.384-0.124,0.573-0.186
			c0-0.751,0.03-1.505-0.004-2.251c-0.19-4.049-0.662-8.104-0.551-12.145c0.391-14.456,3.911-28.282,9.04-41.717
			c7.184-18.809,17.277-36.047,28.846-52.448c15.892-22.529,34.501-42.681,54.36-61.722c20.057-19.232,41.435-36.899,63.611-53.62
			c1.056-0.796,2.085-1.627,3.128-2.441c-0.125-0.21-0.249-0.418-0.371-0.629c-1.071,0.515-2.194,0.945-3.205,1.558
			c-9.417,5.716-18.82,11.458-28.218,17.205c-19.898,12.167-39.12,25.298-57.117,40.169c-19.14,15.816-36.796,33.103-51.913,52.869
			c-10.461,13.679-18.974,28.442-24.323,44.902c-3.432,10.567-5.243,21.39-4.775,32.521c0.544,12.959,4.215,25.087,10.01,36.621
			C443.208,286.869,443.572,287.273,443.878,287.711z M574.634,289.121c-0.948-1.122-1.487-1.861-2.127-2.502
			c-16.521-16.564-33.051-33.123-49.587-49.671c-2.154-2.156-2.835-2.369-5.605-0.886c-5.193,2.776-10.451,5.477-15.395,8.655
			c-16.383,10.53-29.382,24.385-39.461,41.008c-0.609,1.004-0.984,2.146-1.546,3.396
			C498.911,289.121,536.453,289.121,574.634,289.121z M681.344,412.406c-38.374,0-76.184,0-114.554,0
			c0.912,1.079,1.457,1.825,2.102,2.473c16.51,16.552,33.025,33.095,49.552,49.633c2.329,2.328,2.958,2.447,5.846,1.075
			c23.415-11.109,41.934-27.664,55.357-49.867C680.229,414.758,680.677,413.718,681.344,412.406z M632.911,354.679
			c1.068-0.855,1.689-1.271,2.208-1.784c16.754-16.599,33.502-33.201,50.239-49.816c2.087-2.069,2.154-2.473,0.941-5.068
			c-11.131-23.777-27.902-42.496-50.385-56.071c-0.851-0.512-1.807-0.855-3.003-1.412
			C632.911,278.694,632.911,316.364,632.911,354.679z M509.409,348.188c-0.198-0.131-0.395-0.257-0.593-0.383
			c-0.894,0.825-1.815,1.616-2.678,2.472c-7.133,7.08-14.25,14.176-21.387,21.252c-8.986,8.919-17.994,17.814-26.967,26.743
			c-2.356,2.346-2.604,3.621-1.229,6.451c11.231,23.131,27.793,41.418,49.838,54.698c0.853,0.515,1.818,0.844,3.017,1.384
			C509.409,422.931,509.409,385.559,509.409,348.188z M528.642,305.061c-0.131-0.202-0.268-0.403-0.401-0.604
			c-0.376-0.039-0.753-0.116-1.13-0.116c-23.665-0.016-47.332-0.013-70.997-0.063c-2.056-0.005-3.281,0.826-3.881,2.733
			c-1.158,3.682-2.469,7.319-3.47,11.043c-3.617,13.438-5.361,27.109-3.893,40.996c0.873,8.243,2.391,16.412,3.64,24.611
			c0.05,0.329,0.342,0.621,0.601,1.071c0.608-0.352,1.167-0.54,1.538-0.914C476.656,357.576,502.65,331.319,528.642,305.061z
			 M537.212,228.337c2.955,3.857,77.936,78.154,80.073,79.35c0.057-1.022,0.151-1.948,0.151-2.875
			c0.024-22.42,0.04-44.841,0.051-67.265c0.002-4.4-0.474-5.024-4.644-6.472c-19.721-6.848-39.915-8.693-60.541-5.588
			C547.357,226.23,542.463,227.336,537.212,228.337z M613.988,396.813c1.563,0.139,2.393,0.272,3.22,0.272
			c22.523,0.045,45.045,0.079,67.566,0.101c3.432,0.001,4.489-0.702,5.613-3.882c3.822-10.805,6.228-21.917,7.054-33.349
			c1.014-13.996-0.579-27.78-3.632-41.429c-0.094-0.422-0.377-0.805-0.739-1.544C666.732,343.572,640.597,369.954,613.988,396.813z
			 M524.926,394.1c-0.157,1.379-0.313,2.104-0.313,2.828c-0.014,22.513-0.019,45.028,0,67.545c0.001,3.363,0.644,4.265,3.731,5.374
			c12.353,4.454,25.104,6.903,38.217,7.439c9.892,0.406,19.667-0.657,29.368-2.547c2.708-0.525,5.424-1.018,8.723-1.636
			C577.947,446.641,551.65,420.582,524.926,394.1z"/>
	</g>
</g>
<g>
	<path fill="#FFFFFF" d="M1123.025,215.538h73.126c107.735,0,168.677,15.119,182.816,45.339c2.68,0,5.119,8.291,7.313,24.865
		c0,21.205-24.378,81.663-73.126,181.352c0,1.956-15.603,37.542-46.801,106.766h-118.465v-1.463l62.888-138.939h-65.814
		c-2.925,2.925-24.376,49.727-64.351,140.402H962.146v-1.463c80.925-178.183,131.628-290.797,152.104-337.843
		c39.488,0,76.051,6.825,109.69,20.474l-45.338,100.916h65.813c6.821-8.776,13.648-25.834,20.476-51.19
		c1.215-9.992,2.193-15.841,2.925-17.549c0-31.446-22.431-51.431-67.277-59.963c-30.473-5.851-56.307-8.778-77.514-8.778V215.538z"
		/>
	<path fill="#FFFFFF" d="M1465.259,234.553c39.487,0,76.05,6.825,109.688,20.474L1431.62,573.859h-118.465v-1.463
		C1394.079,394.214,1444.783,281.6,1465.259,234.553z M1474.033,215.538h73.126c107.736,0,168.678,15.119,182.816,45.339
		c2.68,0,5.12,8.291,7.314,24.865c0,21.205-24.378,81.663-73.127,181.352c0,1.956-15.602,37.542-46.8,106.766h-118.466v-1.463
		c68.739-149.909,107.25-236.684,115.541-260.331l4.387-24.861c0-31.446-22.43-51.431-67.277-59.963
		c-30.473-5.851-56.307-8.778-77.514-8.778V215.538z"/>
	<path fill="#FFFFFF" d="M1988.479,215.538h125.777v1.464c-22.429,48.023-33.638,73.372-33.638,76.051h-95.064l-125.778,280.806
		h-118.465v-1.463c80.68-177.697,122.607-270.809,125.779-279.343h-90.678c8.775-28.273,20.961-46.311,36.563-54.113
		C1841.98,223.344,1900.48,215.538,1988.479,215.538z"/>
	<path fill="#FFFFFF" d="M2154.11,234.553c39.488,0,76.051,6.825,109.689,20.474c-66.305,144.789-99.452,221.335-99.452,229.618
		c-1.224,9.997-2.194,15.849-2.926,17.55c0,31.445,22.424,51.434,67.276,59.963c30.469,5.852,56.309,8.776,77.514,8.776v2.925
		h-73.126c-107.742,0-168.681-15.111-182.816-45.339c-2.685,0-5.119-8.284-7.312-24.863c0-20.229,22.423-76.782,67.276-169.652
		L2154.11,234.553z M2162.885,215.538h73.127c107.735,0,168.676,15.119,182.817,45.339c2.679,0,5.118,8.291,7.312,24.865
		c0,20.233-22.429,76.783-67.275,169.654l-43.876,99.45c-39.488,0-76.052-6.819-109.69-20.476
		c56.793-124.554,89.454-198.657,97.99-222.305l4.388-24.861c0-31.446-22.431-51.431-67.277-59.963
		c-30.474-5.851-56.308-8.778-77.515-8.778V215.538z"/>
	<path fill="#FFFFFF" d="M2505.117,234.553c39.489,0,76.052,6.825,109.691,20.474L2471.48,573.859h-118.465v-1.463
		C2433.938,394.214,2484.643,281.6,2505.117,234.553z M2513.893,215.538h73.127c107.736,0,168.678,15.119,182.815,45.339
		c2.68,0,5.119,8.291,7.314,24.865c0,21.205-24.379,81.663-73.127,181.352c0,1.956-15.603,37.542-46.802,106.766h-118.465v-1.463
		c68.739-149.909,107.25-236.684,115.54-260.331l4.388-24.861c0-31.446-22.43-51.431-67.276-59.963
		c-30.474-5.851-56.308-8.778-77.515-8.778V215.538z"/>
	<path fill="#FFFFFF" d="M2734.735,92.687h73.127c107.734,0,168.678,15.117,182.815,45.338c2.68,0,5.119,8.29,7.313,24.862
		c0,20.723-24.377,81.172-73.125,181.355l-102.379,229.617h-118.464v-1.463c108.468-238.146,165.506-365.872,171.117-383.182
		l4.387-24.865c0-31.443-22.431-51.427-67.277-59.963c-30.474-5.85-56.307-8.775-77.514-8.775V92.687z"/>
	<path fill="#FFFFFF" d="M3022.488,234.553c39.487,0,76.05,6.825,109.689,20.474c-66.304,144.789-99.452,221.335-99.452,229.618
		c-1.224,9.997-2.193,15.849-2.925,17.55c0,31.445,22.424,51.434,67.275,59.963c30.469,5.852,56.309,8.776,77.516,8.776v2.925
		h-73.129c-107.74,0-168.681-15.111-182.813-45.339c-2.687,0-5.121-8.284-7.314-24.863c0-20.229,22.424-76.782,67.277-169.652
		L3022.488,234.553z M3031.263,215.538h73.127c107.736,0,168.676,15.119,182.816,45.339c2.68,0,5.119,8.291,7.312,24.865
		c0,20.233-22.429,76.783-67.275,169.654l-43.876,99.45c-39.489,0-76.052-6.819-109.689-20.476
		c56.793-124.554,89.454-198.657,97.99-222.305l4.387-24.861c0-31.446-22.43-51.431-67.275-59.963
		c-30.474-5.851-56.309-8.778-77.516-8.778V215.538z"/>
	<path fill="#FFFFFF" d="M3419.199,462.708h118.466v1.462c-3.903,11.7-6.828,24.378-8.774,38.025
		c0,31.445,22.422,51.434,67.274,59.963c30.47,5.852,56.308,8.776,77.516,8.776v2.925h-73.128
		c-107.741,0-168.681-15.111-182.815-45.339c-2.685,0-5.119-8.284-7.313-24.863C3412.373,489.525,3415.298,475.87,3419.199,462.708z
		 M3521.578,234.553c39.487,0,76.05,6.825,109.689,20.474c-21.207,44.122-32.908,72.886-35.103,86.29
		c0,9.751,8.775,14.626,26.328,14.626c85.796,0,128.702,10.237,128.702,30.713v7.311c0,7.073-22.915,60.697-68.739,160.879
		c-39.489,0-76.054-6.819-109.689-20.476c21.207-44.115,32.906-72.88,35.099-86.287c0-9.747-8.774-14.626-26.324-14.626
		c-85.803,0-128.702-10.238-128.702-30.714v-7.313c0-7.798,18.035-50.212,54.113-127.242
		C3516.698,246.984,3521.578,235.773,3521.578,234.553z M3530.353,215.538h73.125c107.736,0,168.678,15.119,182.817,45.339
		c2.68,0,5.117,8.291,7.313,24.865c-1.953,14.14-4.88,27.786-8.774,40.95h-118.466v-1.462c3.896-11.701,6.82-24.372,8.774-38.025
		c0-31.446-22.429-51.431-67.276-59.963c-30.473-5.851-56.308-8.778-77.513-8.778V215.538z"/>
	<path fill="#FFFFFF" d="M3751.195,92.687h73.125c107.735,0,168.676,15.117,182.817,45.338c2.68,0,5.119,8.29,7.313,24.862
		c0,20.723-24.379,81.172-73.127,181.355l-102.379,229.617H3720.48v-1.463c108.47-238.146,165.507-365.872,171.116-383.182
		l4.388-24.865c0-31.443-22.429-51.427-67.275-59.963c-30.474-5.85-56.309-8.775-77.514-8.775V92.687z"/>
	<path fill="#FFFFFF" d="M4209.332,215.538h125.777v1.464c-22.429,48.023-33.638,73.372-33.638,76.051h-95.064l-125.778,280.806
		h-118.465v-1.463c80.679-177.697,122.607-270.809,125.777-279.343h-90.676c8.772-28.273,20.962-46.311,36.563-54.113
		C4062.835,223.344,4121.334,215.538,4209.332,215.538z"/>
	<path fill="#FFFFFF" d="M4374.962,234.553c39.489,0,76.054,6.825,109.689,20.474c-66.307,144.789-99.452,221.335-99.452,229.618
		c-1.22,9.997-2.192,15.849-2.925,17.55c0,31.445,22.424,51.434,67.275,59.963c30.469,5.852,56.313,8.776,77.516,8.776v2.925
		h-73.125c-107.742,0-168.684-15.111-182.816-45.339c-2.687,0-5.119-8.284-7.313-24.863c0-20.229,22.424-76.782,67.275-169.652
		L4374.962,234.553z M4383.737,215.538h73.128c107.736,0,168.675,15.119,182.814,45.339c2.679,0,5.12,8.291,7.312,24.865
		c0,20.233-22.427,76.783-67.271,169.654l-43.879,99.45c-39.486,0-76.051-6.819-109.689-20.476
		c56.793-124.554,89.453-198.657,97.989-222.305l4.388-24.861c0-31.446-22.432-51.431-67.275-59.963
		c-30.473-5.851-56.309-8.778-77.516-8.778V215.538z"/>
</g>
</svg>
